HIERARCHY
ROOT Hips
{
	OFFSET -0.001795 -0.223333 0.028219
	CHANNELS 6 Xposition Yposition Zposition Zrotation Yrotation Xrotation 
	JOINT LeftUpLeg
	{
		OFFSET 0.069520 -0.091406 -0.006815
		CHANNELS 3 Zrotation Yrotation Xrotation
		JOINT LeftLeg
		{
			OFFSET 0.034277 -0.375199 -0.004496
			CHANNELS 3 Zrotation Yrotation Xrotation
			JOINT LeftFoot
			{
				OFFSET -0.013596 -0.397961 -0.043693
				CHANNELS 3 Zrotation Yrotation Xrotation
				JOINT LeftToe
				{
					OFFSET 0.026358 -0.055791 0.119288
					CHANNELS 3 Zrotation Yrotation Xrotation
					End Site
					{
						OFFSET 0.000000 0.000000 0.000000
					}
				}
			}
		}
	}
	JOINT RightUpLeg
	{
		OFFSET -0.067670 -0.090522 -0.004320
		CHANNELS 3 Zrotation Yrotation Xrotation
		JOINT RightLeg
		{
			OFFSET -0.038290 -0.382569 -0.008850
			CHANNELS 3 Zrotation Yrotation Xrotation
			JOINT RightFoot
			{
				OFFSET 0.015774 -0.398415 -0.042312
				CHANNELS 3 Zrotation Yrotation Xrotation
				JOINT RightToe
				{
					OFFSET -0.025372 -0.048144 0.123348
					CHANNELS 3 Zrotation Yrotation Xrotation
					End Site
					{
						OFFSET 0.000000 0.000000 0.000000
					}
				}
			}
		}
	}
	JOINT Spine
	{
		OFFSET -0.002533 0.108963 -0.026696
		CHANNELS 3 Zrotation Yrotation Xrotation
		JOINT Spine1
		{
			OFFSET 0.005487 0.135180 0.001092
			CHANNELS 3 Zrotation Yrotation Xrotation
			JOINT Spine2
			{
				OFFSET 0.001457 0.052922 0.025425
				CHANNELS 3 Zrotation Yrotation Xrotation
				JOINT Neck
				{
					OFFSET -0.002778 0.213870 -0.042857
					CHANNELS 3 Zrotation Yrotation Xrotation
					JOINT Head
					{
						OFFSET 0.005152 0.064970 0.051349
						CHANNELS 3 Zrotation Yrotation Xrotation
						End Site
						{
							OFFSET 0.000000 0.000000 0.000000
						}
					}
				}
				JOINT LeftShoulder
				{
					OFFSET 0.078845 0.121749 -0.034090
					CHANNELS 3 Zrotation Yrotation Xrotation
					JOINT LeftArm
					{
						OFFSET 0.090977 0.030469 -0.008868
						CHANNELS 3 Zrotation Yrotation Xrotation
						JOINT LeftForeArm
						{
							OFFSET 0.259612 -0.012772 -0.027456
							CHANNELS 3 Zrotation Yrotation Xrotation
							JOINT LeftHand
							{
								OFFSET 0.249234 0.008986 -0.001171
								CHANNELS 3 Zrotation Yrotation Xrotation
								End Site
								{
									OFFSET 0.000000 0.000000 0.000000
								}
							}
						}
					}
				}
				JOINT RightShoulder
				{
					OFFSET -0.081759 0.118833 -0.038615
					CHANNELS 3 Zrotation Yrotation Xrotation
					JOINT RightArm
					{
						OFFSET -0.096012 0.032551 -0.009143
						CHANNELS 3 Zrotation Yrotation Xrotation
						JOINT RightForeArm
						{
							OFFSET -0.253742 -0.013329 -0.021401
							CHANNELS 3 Zrotation Yrotation Xrotation
							JOINT RightHand
							{
								OFFSET -0.255298 0.007772 -0.005559
								CHANNELS 3 Zrotation Yrotation Xrotation
								End Site
								{
									OFFSET 0.000000 0.000000 0.000000
								}
							}
						}
					}
				}
			}
		}
	}
}
MOTION
Frames: 7
Frame Time: 0.050000
0.000000 0.899777 0.000000 -3.269986 -4.748184 21.551768 11.672098 1.247438 -44.869096 1.574274 -0.913881 21.527206 -0.019781 -0.984654 -2.077030 0.000000 0.000000 0.000000 -1.817957 5.158629 -46.905362 6.949042 -0.916488 27.363730 -0.793656 -3.400359 2.190391 0.000000 0.000000 0.000000 -1.711862 -0.163515 46.132167 -0.404107 0.215390 -0.417134 -7.085461 3.938432 2.326561 12.716558 -6.134042 -14.088123 0.000000 0.000000 0.000000 -9.405234 -50.228397 23.774846 -4.292027 -47.753820 -1.870988 8.154927 -3.396512 -0.044145 0.000000 0.000000 0.000000 3.927878 38.510404 17.470414 10.935695 54.274517 1.329528 -15.586872 6.824482 -0.344429 0.000000 0.000000 0.000000 
0.000468 0.890328 0.001069 -3.997079 -6.160000 21.897975 12.974970 2.315125 -47.223430 0.418896 -0.520850 26.093516 0.753340 -0.065699 -4.185627 0.000000 0.000000 0.000000 -2.057457 5.786575 -49.729994 8.185960 -1.262491 30.717518 -0.657369 -3.269281 2.460649 0.000000 0.000000 0.000000 -2.347814 0.530791 47.893874 1.313708 -0.536052 -0.150136 -9.128541 7.580776 -0.176840 17.385707 -8.228310 -15.435754 0.000000 0.000000 0.000000 -8.004795 -54.565911 24.874798 -3.599036 -47.862136 -2.254067 5.700894 -2.896911 0.034110 0.000000 0.000000 0.000000 1.726828 37.886376 17.243732 10.019726 57.709577 1.736833 -15.498448 3.046525 0.031945 0.000000 0.000000 0.000000 
0.001844 0.876768 0.002473 -4.207301 -6.412730 21.112003 12.425906 2.345020 -49.218078 1.535510 -0.988021 31.289336 1.194235 -0.292024 -7.128085 0.000000 0.000000 0.000000 -1.888416 6.326697 -52.437780 8.079273 -1.253658 37.159267 -1.126444 -3.396658 0.337928 0.000000 0.000000 0.000000 -1.617570 0.258563 50.088853 1.410994 -0.547190 -1.439857 -9.454465 8.630416 0.662530 16.528623 -8.388897 -13.201018 0.000000 0.000000 0.000000 -10.059075 -57.168533 27.167346 -0.464276 -45.678853 -3.318511 3.361406 -2.146781 0.062900 0.000000 0.000000 0.000000 0.883154 39.060636 17.592801 8.026467 56.527613 0.791071 -14.057018 0.535813 0.240649 0.000000 0.000000 0.000000 
0.004026 0.864420 0.004300 -4.360716 -7.311165 21.338096 12.335714 2.748749 -51.217716 1.698086 -1.031339 35.074942 1.797737 0.186399 -9.587767 0.000000 0.000000 0.000000 -2.195133 6.875080 -55.233053 9.301926 -1.769191 41.210102 -2.300995 -6.163153 -0.685235 0.000000 0.000000 0.000000 -1.062103 0.194237 50.732946 1.206687 -0.493029 0.114699 -9.920304 8.662630 -1.183331 18.220824 -8.540222 -15.745218 0.000000 0.000000 0.000000 -9.536408 -58.750542 27.982364 -1.031952 -46.173475 -3.112541 4.085547 -1.573548 0.059549 0.000000 0.000000 0.000000 -0.353110 39.855120 17.553880 5.962496 56.749297 -0.024685 -14.212778 0.182849 0.277774 0.000000 0.000000 0.000000 
0.007247 0.851513 0.007111 -3.922394 -7.558835 20.075444 12.296342 2.875073 -51.837404 0.630642 -0.536470 38.832113 2.341699 0.305271 -12.451293 0.000000 0.000000 0.000000 -3.070025 6.857904 -57.130639 10.024782 -2.231754 45.815229 -2.732357 -7.477716 -0.358467 0.000000 0.000000 0.000000 -0.281819 -0.140188 52.347491 1.432282 -0.590146 -0.338196 -10.558196 8.438355 -0.255767 17.502033 -8.012687 -16.468796 0.000000 0.000000 0.000000 -8.638945 -59.899838 28.053478 -0.171366 -44.606528 -3.284894 4.311504 -1.069311 0.053889 0.000000 0.000000 0.000000 -2.367595 40.386935 16.792901 6.949157 57.080694 0.540542 -15.645867 -0.673555 0.409105 0.000000 0.000000 0.000000 
0.012420 0.844490 0.010532 -3.892708 -7.759270 18.909649 12.497309 2.941716 -51.111373 -0.323178 -0.017840 40.321002 2.777225 0.496903 -14.693133 0.000000 0.000000 0.000000 -2.915767 6.921162 -56.808609 9.425346 -1.897647 48.244510 -2.793489 -6.760680 -2.327595 0.000000 0.000000 0.000000 0.668109 -0.617069 53.030553 1.498465 -0.648175 0.704369 -11.361233 8.560540 -1.247381 19.120123 -9.056828 -16.140148 0.000000 0.000000 0.000000 -10.143604 -61.592728 29.782161 -0.553433 -42.646062 -2.947467 4.772497 -1.218427 0.058838 0.000000 0.000000 0.000000 -1.326179 41.434253 17.722554 8.908399 56.117592 1.418890 -16.661950 -0.550969 0.435651 0.000000 0.000000 0.000000 
0.020430 0.844729 0.014612 -3.485338 -7.191509 17.201693 12.380642 2.498719 -48.911291 -1.805404 0.646349 39.730608 2.941767 0.320051 -15.917915 0.000000 0.000000 0.000000 -3.185355 6.281478 -54.646967 8.872381 -1.661537 48.249192 -2.917253 -6.728875 -3.031731 0.000000 0.000000 0.000000 1.764521 -1.410052 52.205473 1.609607 -0.716579 1.092678 -11.722472 8.922113 -0.577672 19.799667 -9.300251 -16.914466 0.000000 0.000000 0.000000 -11.805839 -61.661946 30.361948 -2.503895 -41.654342 -2.232693 6.210200 -1.386204 0.058245 0.000000 0.000000 0.000000 1.849352 40.794869 18.609867 11.743893 53.484679 2.360809 -16.798142 2.037759 0.132447 0.000000 0.000000 0.000000 
